<svg width="670" height="581" viewBox="0 0 670 581" fill="none" xmlns="http://www.w3.org/2000/svg">
<g clip-path="url(#clip0_183_118)">
<path d="M195.488 574.937C206.275 565.731 212.828 551.187 211.11 537.029C209.391 522.87 198.748 509.854 184.942 506.848C171.136 503.841 155.398 512.164 151.205 525.785C148.897 499.524 146.238 472.163 132.414 449.799C119.897 429.549 98.2168 415.06 74.7206 412.468C51.2244 409.876 26.4859 419.666 11.8322 438.396C-2.82157 457.127 -6.40946 484.357 3.85363 505.862C11.4141 521.703 25.3431 533.492 39.9372 543.084C87.0962 573.816 143.657 586.313 199.213 578.276" fill="#F2F2F2"/>
<path d="M35.0671 420.208C54.4544 436.157 72.2402 453.995 88.1672 473.464C113.093 503.827 133.263 537.871 147.975 574.408C149.052 577.073 144.767 578.233 143.702 575.597C134.346 552.497 122.771 530.378 109.143 509.558C87.8921 477.034 61.8564 447.972 31.9334 423.374C29.721 421.554 32.873 418.404 35.0671 420.208Z" fill="white"/>
<path d="M202.939 574.937C192.151 565.731 185.599 551.187 187.317 537.029C189.036 522.87 199.679 509.854 213.485 506.848C227.291 503.841 243.029 512.164 247.222 525.785C249.53 499.524 252.189 472.163 266.013 449.799C278.53 429.549 300.21 415.06 323.706 412.468C347.202 409.876 371.941 419.666 386.595 438.396C401.248 457.127 404.836 484.357 394.573 505.862C387.013 521.703 373.084 533.492 358.49 543.084C311.331 573.816 254.77 586.313 199.213 578.276" fill="#F2F2F2"/>
<path d="M363.36 420.208C343.972 436.157 326.187 453.995 310.26 473.464C285.334 503.827 265.164 537.871 250.452 574.408C249.375 577.073 253.66 578.233 254.725 575.597C278.796 516.217 317.224 463.881 366.493 423.374C368.706 421.554 365.554 418.404 363.36 420.208Z" fill="white"/>
<path d="M234.951 261.362C254.908 261.362 271.086 245.022 271.086 224.865C271.086 204.709 254.908 188.369 234.951 188.369C214.994 188.369 198.816 204.709 198.816 224.865C198.816 245.022 214.994 261.362 234.951 261.362Z" fill="#F2F2F2"/>
<path d="M123.536 99.0557H372.498V112.813H155.318C142.549 112.813 129.904 115.353 118.107 120.288C106.31 125.224 95.5901 132.458 86.5608 141.577C77.5315 150.697 70.369 161.523 65.4824 173.439C60.5957 185.354 58.0806 198.125 58.0807 211.022V367.319H30.8387C29.6345 367.319 28.4797 366.836 27.6282 365.976C26.7767 365.116 26.2984 363.95 26.2983 362.733V197.265C26.2983 184.368 28.8135 171.597 33.7001 159.682C38.5867 147.766 45.7492 136.94 54.7785 127.82C63.8078 118.701 74.5272 111.467 86.3246 106.531C98.122 101.596 110.766 99.0556 123.536 99.0557Z" fill="#F2F2F2"/>
<path d="M171.423 575.702V366.73H232.037V575.702C232.035 577.107 231.482 578.453 230.499 579.446C229.515 580.44 228.182 580.998 226.791 581H176.668C175.277 580.998 173.944 580.44 172.961 579.446C171.977 578.453 171.424 577.107 171.423 575.702Z" fill="#484848"/>
<path d="M13.4762 362.61V192.684C13.5064 165.633 24.1595 139.699 43.0982 120.571C62.037 101.443 87.7147 90.6831 114.498 90.6525H371.333V368.496H19.3045C17.7593 368.495 16.2779 367.874 15.1852 366.77C14.0926 365.667 13.478 364.171 13.4762 362.61ZM369.001 93.0071H114.498C88.3328 93.037 63.2476 103.548 44.746 122.235C26.2443 140.922 15.8371 166.257 15.8075 192.684V362.61C15.8085 363.546 16.1773 364.444 16.8329 365.106C17.4885 365.768 18.3773 366.141 19.3045 366.142H369.001V93.0071Z" fill="#3F3D56"/>
<path d="M234.951 243.702C229.388 243.696 224.055 241.461 220.121 237.488C216.188 233.515 213.975 228.129 213.969 222.511V70.6383C213.968 69.7019 213.599 68.8041 212.944 68.142C212.288 67.4798 211.399 67.1074 210.472 67.1064H128.876C127.331 67.1046 125.85 66.4838 124.757 65.3803C123.664 64.2767 123.05 62.7805 123.048 61.2199V5.88652C123.05 4.32588 123.664 2.82966 124.757 1.72611C125.85 0.622567 127.331 0.00180721 128.876 0H250.104C251.65 0.00178544 253.131 0.622544 254.224 1.72609C255.316 2.82965 255.931 4.32587 255.933 5.88652V222.511C255.926 228.129 253.714 233.515 249.78 237.488C245.847 241.461 240.514 243.696 234.951 243.702Z" fill="#83FFD2"/>
<path d="M380.658 88.2979C398.243 88.2607 415.122 95.2803 427.582 107.812C440.043 120.345 447.063 137.363 447.1 155.123V348.566H577.654C582.898 348.555 587.933 350.648 591.649 354.386C595.365 358.124 597.459 363.199 597.47 368.496H314.216V155.123C314.252 137.363 321.273 120.345 333.734 107.812C346.194 95.2803 363.073 88.2607 380.658 88.2979Z" fill="#484848"/>
<path d="M364.714 198.455L378.472 255.856L647.6 190.055L633.842 132.654C633.676 131.952 633.337 131.304 632.856 130.77C632.376 130.236 631.77 129.833 631.094 129.599C630.595 129.422 630.067 129.341 629.539 129.362L473.971 48.0083C473.06 47.5382 472.012 47.4126 471.016 47.6542C470.021 47.8959 469.144 48.4888 468.544 49.3261L393.569 154.923L365.304 194.743C365.253 194.812 365.217 194.893 365.199 194.977C365.181 195.062 365.182 195.15 365.2 195.235C364.625 196.202 364.45 197.359 364.714 198.455Z" fill="white"/>
<path d="M365.2 195.235C365.214 195.31 365.241 195.381 365.282 195.445C365.323 195.509 365.375 195.564 365.437 195.607C365.51 195.657 365.593 195.692 365.679 195.71C365.766 195.727 365.856 195.726 365.942 195.708C366.083 195.67 366.206 195.583 366.291 195.464L366.388 195.328L367.859 193.249L394.587 155.618L469.539 50.0448C469.967 49.4466 470.593 49.023 471.303 48.851C472.014 48.679 472.762 48.77 473.411 49.1074L627.774 129.831L629.159 130.557C629.215 130.581 629.272 130.601 629.331 130.618C629.435 130.599 629.541 130.589 629.647 130.588C629.792 130.539 629.913 130.436 629.985 130.299C630.023 130.228 630.046 130.149 630.053 130.069C630.061 129.988 630.053 129.906 630.029 129.829C630.005 129.751 629.967 129.679 629.915 129.617C629.864 129.555 629.801 129.503 629.73 129.465L629.539 129.362L473.971 48.0083C473.06 47.5382 472.012 47.4126 471.016 47.6542C470.021 47.8959 469.144 48.4888 468.544 49.3261L393.569 154.923L365.304 194.743C365.253 194.812 365.217 194.893 365.199 194.977C365.181 195.062 365.182 195.15 365.2 195.235Z" fill="#3F3D56"/>
<path d="M446.028 201.088L452.019 201.759L496.48 206.734L525.954 210.03L527.695 210.225L564.474 181.211L565.883 180.099L574.57 173.247L605.476 148.869L605.662 147.157L616.654 46.9519C616.804 45.5721 616.406 44.1886 615.547 43.1047C614.689 42.0207 613.44 41.3248 612.074 41.1696L465.369 24.7559C464.003 24.6052 462.634 25.0074 461.561 25.8744C460.488 26.7414 459.799 28.0026 459.644 29.3817L451.892 100.064L447.592 139.252L443.745 174.31L441.962 190.591L441.442 195.307C441.293 196.688 441.693 198.071 442.552 199.155C443.412 200.238 444.662 200.934 446.028 201.088Z" fill="#E6E6E6"/>
<path d="M486.342 113.254L549.89 120.363L572.426 122.883C573.421 122.994 574.428 122.907 575.39 122.625C576.351 122.343 577.248 121.873 578.03 121.241C578.811 120.609 579.462 119.828 579.944 118.942C580.427 118.056 580.732 117.083 580.842 116.078C580.952 115.073 580.866 114.056 580.587 113.085C580.308 112.114 579.842 111.208 579.216 110.419C578.591 109.63 577.817 108.972 576.94 108.485C576.063 107.998 575.1 107.69 574.105 107.578L546.074 104.443L488.025 97.9419C486.015 97.7176 484 98.3086 482.421 99.585C480.843 100.861 479.83 102.719 479.607 104.749C479.384 106.778 479.968 108.815 481.231 110.41C482.494 112.005 484.333 113.028 486.342 113.254Z" fill="white"/>
<path d="M482.724 141.646C482.888 141.676 483.052 141.705 483.219 141.721L556.988 149.975L569.304 151.356C571.315 151.581 573.331 150.99 574.91 149.713C576.488 148.436 577.5 146.578 577.723 144.548C577.945 142.517 577.36 140.481 576.095 138.886C574.831 137.292 572.992 136.27 570.981 136.046L553.172 134.055L494.737 127.516L484.903 126.415C482.937 126.194 480.962 126.753 479.396 127.975C477.831 129.198 476.797 130.987 476.514 132.965C476.231 134.943 476.721 136.955 477.88 138.575C479.039 140.195 480.776 141.296 482.724 141.646Z" fill="white"/>
<path d="M474.375 166.821C474.98 167.835 475.807 168.694 476.794 169.332C477.781 169.971 478.9 170.37 480.064 170.501L510.3 173.883L564.15 179.908L564.161 179.906L565.883 180.099L574.57 173.247C574.624 172.727 574.624 172.202 574.572 171.681C574.388 169.934 573.62 168.301 572.393 167.054C571.167 165.808 569.555 165.021 567.826 164.825L560.346 163.986L530.672 160.669L509.32 158.277L481.741 155.19C480.327 155.032 478.898 155.276 477.615 155.896C476.332 156.515 475.246 157.484 474.48 158.694C473.714 159.904 473.298 161.307 473.279 162.743C473.261 164.179 473.64 165.592 474.375 166.821Z" fill="white"/>
<path d="M516.843 78.5493L532.655 80.318L539.639 81.1013L550.188 82.2805C552.198 82.5051 554.214 81.9139 555.793 80.6371C557.372 79.3602 558.384 77.5022 558.606 75.4719C558.828 73.4415 558.243 71.4051 556.979 69.8106C555.715 68.2162 553.875 67.1942 551.865 66.9696L518.528 63.243C516.518 63.0174 514.502 63.6073 512.923 64.883C511.344 66.1587 510.332 68.0157 510.108 70.0455C509.885 72.0752 510.469 74.1115 511.732 75.7062C512.995 77.301 514.834 78.3237 516.843 78.5493Z" fill="white"/>
<path d="M387.555 121.182L406.831 201.608L439.005 207.787L468.767 213.51L500.698 219.646L510.901 221.607C511.498 221.721 512.113 221.706 512.704 221.561C513.294 221.417 513.848 221.147 514.327 220.77L522.513 214.313L527.695 210.225L564.474 181.211L541.089 83.6431C540.858 82.6724 540.354 81.7898 539.639 81.1012C539.011 80.492 538.241 80.0521 537.401 79.8223C536.561 79.5924 535.677 79.5799 534.83 79.7859L391.374 114.861C390.038 115.189 388.885 116.038 388.169 117.223C387.453 118.409 387.232 119.832 387.555 121.182Z" fill="#83FFD2"/>
<path d="M431.757 185.164C432.234 187.148 433.471 188.86 435.197 189.923C436.922 190.987 438.995 191.315 440.96 190.836L525.138 170.255C527.101 169.772 528.795 168.522 529.848 166.78C530.901 165.037 531.226 162.944 530.754 160.959C530.732 160.861 530.705 160.764 530.672 160.669C530.134 158.755 528.884 157.126 527.184 156.123C525.483 155.12 523.464 154.82 521.55 155.287L437.373 175.868C435.408 176.35 433.714 177.6 432.661 179.343C431.608 181.086 431.283 183.179 431.757 185.164Z" fill="white"/>
<path d="M439.005 207.787L468.767 213.51L531.811 198.096C533.776 197.615 535.472 196.366 536.525 194.623C537.578 192.879 537.902 190.785 537.427 188.8C536.951 186.815 535.714 185.102 533.988 184.039C532.262 182.975 530.188 182.647 528.223 183.128L444.046 203.709C442.287 204.136 440.737 205.185 439.678 206.666C439.422 207.02 439.197 207.395 439.005 207.787Z" fill="white"/>
<path d="M500.698 219.646L510.901 221.607C511.498 221.721 512.113 221.706 512.704 221.561C513.294 221.417 513.848 221.147 514.328 220.77L522.513 214.313L500.698 219.646Z" fill="white"/>
<path d="M448.718 142.038C449.195 144.022 450.432 145.733 452.158 146.797C453.884 147.86 455.957 148.189 457.922 147.71L490.525 139.739C492.489 139.256 494.183 138.006 495.236 136.263C496.289 134.521 496.614 132.428 496.142 130.443C495.888 129.376 495.409 128.378 494.737 127.516C493.835 126.35 492.62 125.472 491.237 124.985C489.854 124.498 488.362 124.424 486.938 124.771L454.334 132.742C452.369 133.223 450.673 134.472 449.62 136.216C448.567 137.959 448.242 140.053 448.718 142.038Z" fill="white"/>
<path d="M468.764 213.509L500.701 219.647L510.901 221.609C511.498 221.722 512.112 221.705 512.702 221.561C513.292 221.417 513.846 221.148 514.325 220.772L522.517 214.313L519.642 215.016L513.574 219.797C513.231 220.066 512.836 220.258 512.415 220.361C511.993 220.464 511.554 220.476 511.128 220.395L503.575 218.944L471.639 212.806L468.764 213.509ZM564.159 179.91L564.47 181.207L565.886 180.095L564.159 179.91ZM468.764 213.509L500.701 219.647L510.901 221.609C511.498 221.722 512.112 221.705 512.702 221.561C513.292 221.417 513.846 221.148 514.325 220.772L522.517 214.313L519.642 215.016L513.574 219.797C513.231 220.066 512.836 220.258 512.415 220.361C511.993 220.464 511.554 220.476 511.128 220.395L503.575 218.944L471.639 212.806L468.764 213.509ZM468.764 213.509L500.701 219.647L510.901 221.609C511.498 221.722 512.112 221.705 512.702 221.561C513.292 221.417 513.846 221.148 514.325 220.772L522.517 214.313L519.642 215.016L513.574 219.797C513.231 220.066 512.836 220.258 512.415 220.361C511.993 220.464 511.554 220.476 511.128 220.395L503.575 218.944L471.639 212.806L468.764 213.509ZM364.714 198.455L400.751 348.809C401.019 349.92 401.712 350.879 402.678 351.474C403.645 352.07 404.805 352.254 405.906 351.986L666.734 288.214C667.834 287.944 668.783 287.244 669.373 286.268C669.963 285.292 670.145 284.119 669.88 283.008L633.842 132.654C633.676 131.952 633.337 131.304 632.856 130.77C632.376 130.236 631.77 129.833 631.094 129.599C630.595 129.421 630.067 129.341 629.539 129.362C628.923 129.38 628.319 129.541 627.774 129.831C627.522 129.952 627.285 130.101 627.066 130.275L605.66 147.157L574.572 171.685L564.157 179.901L564.159 179.91L564.15 179.912L525.956 210.025L519.642 215.016L513.574 219.797C513.231 220.066 512.836 220.258 512.415 220.361C511.993 220.464 511.554 220.476 511.128 220.395L503.575 218.944L471.639 212.806L439.674 206.666L369.663 193.21C369.066 193.09 368.451 193.104 367.859 193.249C367.063 193.446 366.34 193.869 365.775 194.469C365.559 194.704 365.366 194.961 365.2 195.235C364.625 196.202 364.45 197.359 364.714 198.455ZM468.764 213.509L500.701 219.647L510.901 221.609C511.498 221.722 512.112 221.705 512.702 221.561C513.292 221.417 513.846 221.148 514.325 220.772L522.517 214.313L519.642 215.016L513.574 219.797C513.231 220.066 512.836 220.258 512.415 220.361C511.993 220.464 511.554 220.476 511.128 220.395L503.575 218.944L471.639 212.806L468.764 213.509ZM468.764 213.509L500.701 219.647L510.901 221.609C511.498 221.722 512.112 221.705 512.702 221.561C513.292 221.417 513.846 221.148 514.325 220.772L522.517 214.313L519.642 215.016L513.574 219.797C513.231 220.066 512.836 220.258 512.415 220.361C511.993 220.464 511.554 220.476 511.128 220.395L503.575 218.944L471.639 212.806L468.764 213.509ZM468.764 213.509L500.701 219.647L510.901 221.609C511.498 221.722 512.112 221.705 512.702 221.561C513.292 221.417 513.846 221.148 514.325 220.772L522.517 214.313L519.642 215.016L513.574 219.797C513.231 220.066 512.836 220.258 512.415 220.361C511.993 220.464 511.554 220.476 511.128 220.395L503.575 218.944L471.639 212.806L468.764 213.509Z" fill="white"/>
<path d="M468.764 213.509L500.701 219.647L510.901 221.609C511.498 221.722 512.112 221.706 512.702 221.561C513.292 221.417 513.846 221.148 514.325 220.772L522.517 214.313L519.642 215.016L513.574 219.797C513.231 220.066 512.836 220.258 512.415 220.361C511.993 220.464 511.554 220.476 511.128 220.395L503.575 218.945L471.639 212.807L468.764 213.509ZM564.159 179.91L564.47 181.207L565.886 180.095L564.159 179.91ZM468.764 213.509L500.701 219.647L510.901 221.609C511.498 221.722 512.112 221.706 512.702 221.561C513.292 221.417 513.846 221.148 514.325 220.772L522.517 214.313L519.642 215.016L513.574 219.797C513.231 220.066 512.836 220.258 512.415 220.361C511.993 220.464 511.554 220.476 511.128 220.395L503.575 218.945L471.639 212.807L468.764 213.509ZM468.764 213.509L500.701 219.647L510.901 221.609C511.498 221.722 512.112 221.706 512.702 221.561C513.292 221.417 513.846 221.148 514.325 220.772L522.517 214.313L519.642 215.016L513.574 219.797C513.231 220.066 512.836 220.258 512.415 220.361C511.993 220.464 511.554 220.476 511.128 220.395L503.575 218.945L471.639 212.807L468.764 213.509ZM366.388 195.328L366.546 195.448C366.573 195.404 366.619 195.365 366.654 195.319C367.007 194.948 367.446 194.671 367.931 194.513C368.416 194.355 368.933 194.321 369.434 194.415L439.007 207.782L468.764 213.509L500.701 219.647L510.901 221.609C511.498 221.722 512.112 221.706 512.702 221.561C513.292 221.417 513.846 221.148 514.325 220.772L522.517 214.313L519.642 215.016L513.574 219.797C513.231 220.066 512.836 220.258 512.415 220.361C511.993 220.464 511.554 220.476 511.128 220.395L503.575 218.945L471.639 212.807L439.674 206.666L369.663 193.21C369.066 193.09 368.451 193.104 367.859 193.249L366.388 195.328ZM364.714 198.455L400.751 348.809C401.019 349.92 401.712 350.879 402.678 351.474C403.645 352.07 404.805 352.254 405.906 351.986L666.734 288.214C667.834 287.944 668.783 287.244 669.373 286.268C669.963 285.292 670.145 284.119 669.88 283.008L633.842 132.654C633.676 131.952 633.337 131.304 632.856 130.77C632.376 130.236 631.77 129.833 631.094 129.599C630.595 129.422 630.067 129.341 629.539 129.362C628.923 129.38 628.319 129.541 627.774 129.831C627.522 129.952 627.285 130.101 627.066 130.275L605.66 147.158L574.572 171.685L564.157 179.901L564.159 179.91L564.15 179.912L525.956 210.026L519.642 215.016L513.574 219.797C513.231 220.066 512.836 220.258 512.415 220.361C511.993 220.464 511.554 220.476 511.128 220.395L503.575 218.945L471.639 212.807L439.674 206.666L369.663 193.21C369.066 193.09 368.451 193.104 367.859 193.249C367.063 193.446 366.34 193.869 365.775 194.469C365.559 194.704 365.366 194.961 365.2 195.235C364.625 196.202 364.45 197.359 364.714 198.455ZM365.903 198.165C365.796 197.722 365.789 197.26 365.882 196.814C365.975 196.368 366.166 195.948 366.44 195.586C366.465 195.533 366.501 195.486 366.546 195.448C366.573 195.404 366.619 195.365 366.654 195.319C367.007 194.948 367.446 194.671 367.931 194.513C368.416 194.355 368.933 194.321 369.434 194.415L439.007 207.782L468.764 213.509L500.701 219.647L510.901 221.609C511.498 221.722 512.112 221.706 512.702 221.561C513.292 221.417 513.846 221.148 514.325 220.772L522.517 214.313L527.697 210.226L564.47 181.207L565.886 180.095L574.566 173.246L605.477 148.865L627.824 131.239C628.164 130.971 628.556 130.78 628.975 130.677C629.092 130.648 629.211 130.629 629.331 130.618C629.435 130.599 629.541 130.589 629.647 130.588C630.004 130.584 630.36 130.643 630.697 130.761C631.179 130.93 631.611 131.218 631.954 131.599C632.297 131.98 632.541 132.442 632.663 132.942L668.7 283.296C668.795 283.69 668.812 284.099 668.75 284.5C668.688 284.9 668.549 285.285 668.339 285.631C668.13 285.977 667.856 286.278 667.531 286.517C667.207 286.756 666.839 286.928 666.449 287.023L405.621 350.795C404.834 350.986 404.004 350.853 403.314 350.427C402.623 350 402.129 349.313 401.94 348.519L365.903 198.165ZM468.764 213.509L500.701 219.647L510.901 221.609C511.498 221.722 512.112 221.706 512.702 221.561C513.292 221.417 513.846 221.148 514.325 220.772L522.517 214.313L519.642 215.016L513.574 219.797C513.231 220.066 512.836 220.258 512.415 220.361C511.993 220.464 511.554 220.476 511.128 220.395L503.575 218.945L471.639 212.807L468.764 213.509ZM468.764 213.509L500.701 219.647L510.901 221.609C511.498 221.722 512.112 221.706 512.702 221.561C513.292 221.417 513.846 221.148 514.325 220.772L522.517 214.313L519.642 215.016L513.574 219.797C513.231 220.066 512.836 220.258 512.415 220.361C511.993 220.464 511.554 220.476 511.128 220.395L503.575 218.945L471.639 212.807L468.764 213.509ZM468.764 213.509L500.701 219.647L510.901 221.609C511.498 221.722 512.112 221.706 512.702 221.561C513.292 221.417 513.846 221.148 514.325 220.772L522.517 214.313L519.642 215.016L513.574 219.797C513.231 220.066 512.836 220.258 512.415 220.361C511.993 220.464 511.554 220.476 511.128 220.395L503.575 218.945L471.639 212.807L468.764 213.509Z" fill="#3F3D56"/>
<path d="M598.754 258.674C598.167 256.211 598.571 253.612 599.878 251.449C601.185 249.286 603.288 247.734 605.726 247.135L638.646 239.086C641.082 238.5 643.649 238.913 645.784 240.234C647.92 241.555 649.449 243.677 650.039 246.136C650.628 248.594 650.228 251.188 648.928 253.349C647.627 255.51 645.531 257.063 643.099 257.667L610.179 265.716C607.74 266.309 605.167 265.901 603.025 264.581C600.884 263.261 599.348 261.137 598.754 258.674Z" fill="#83FFD2"/>
<path d="M234.951 230.752C239.457 230.752 243.11 227.062 243.11 222.511C243.11 217.959 239.457 214.27 234.951 214.27C230.444 214.27 226.791 217.959 226.791 222.511C226.791 227.062 230.444 230.752 234.951 230.752Z" fill="white"/>
</g>
<defs>
<clipPath id="clip0_183_118">
<rect width="672" height="581" fill="white" transform="translate(-2)"/>
</clipPath>
</defs>
</svg>
