<svg width="678" height="435" viewBox="0 0 678 435" fill="none" xmlns="http://www.w3.org/2000/svg">
<g clip-path="url(#clip0_149_27)">
<path d="M661.404 434.486H16.8461C12.4462 434.481 8.22788 432.742 5.11664 429.649C2.00541 426.556 0.255339 422.363 0.250366 417.989V22.8907C0.253952 19.6863 1.53603 16.6142 3.81531 14.3483C6.0946 12.0824 9.18496 10.8078 12.4084 10.8041H665.632C668.911 10.8078 672.055 12.1044 674.373 14.4095C676.692 16.7146 677.996 19.8399 678 23.0997V417.989C677.995 422.363 676.245 426.556 673.134 429.649C670.023 432.742 665.804 434.481 661.404 434.486Z" fill="#F2F2F2"/>
<path d="M640.564 413.657H39.8529C31.0471 413.657 23.8831 406.988 23.8831 398.791V54.7346C23.8831 48.6554 29.1918 43.7094 35.7171 43.7094H644.504C651.137 43.7094 656.534 48.737 656.534 54.9163V398.791C656.534 406.988 649.37 413.657 640.564 413.657Z" fill="white"/>
<path d="M677.769 24.9466H0.0174561V16.5474C0.0238365 12.159 1.78105 7.9522 4.90359 4.85004C8.02613 1.74787 12.259 0.00363886 16.6736 0H661.113C665.527 0.00360185 669.76 1.74781 672.883 4.84999C676.005 7.95217 677.763 12.159 677.769 16.5474V24.9466Z" fill="#83FFD2"/>
<path d="M30.2875 16.7811C32.6669 16.7811 34.5958 14.8636 34.5958 12.4983C34.5958 10.1329 32.6669 8.21545 30.2875 8.21545C27.9081 8.21545 25.9792 10.1329 25.9792 12.4983C25.9792 14.8636 27.9081 16.7811 30.2875 16.7811Z" fill="white"/>
<path d="M46.6407 16.7811C49.0201 16.7811 50.949 14.8636 50.949 12.4983C50.949 10.1329 49.0201 8.21545 46.6407 8.21545C44.2613 8.21545 42.3324 10.1329 42.3324 12.4983C42.3324 14.8636 44.2613 16.7811 46.6407 16.7811Z" fill="white"/>
<path d="M62.9939 16.7811C65.3733 16.7811 67.3021 14.8636 67.3021 12.4983C67.3021 10.1329 65.3733 8.21545 62.9939 8.21545C60.6145 8.21545 58.6856 10.1329 58.6856 12.4983C58.6856 14.8636 60.6145 16.7811 62.9939 16.7811Z" fill="white"/>
<path d="M325.957 118.938H208.471C206.72 118.938 205.04 118.246 203.801 117.015C202.563 115.784 201.867 114.114 201.867 112.372C201.867 110.631 202.563 108.961 203.801 107.73C205.04 106.499 206.72 105.807 208.471 105.807H325.957C327.709 105.807 329.389 106.499 330.627 107.73C331.866 108.961 332.561 110.631 332.561 112.372C332.561 114.114 331.866 115.784 330.627 117.015C329.389 118.246 327.709 118.938 325.957 118.938Z" fill="#CCCCCC"/>
<path d="M471.946 118.938H354.46C352.708 118.938 351.028 118.246 349.79 117.015C348.551 115.784 347.856 114.114 347.856 112.372C347.856 110.631 348.551 108.961 349.79 107.73C351.028 106.499 352.708 105.807 354.46 105.807H471.946C473.697 105.807 475.377 106.499 476.616 107.73C477.854 108.961 478.55 110.631 478.55 112.372C478.55 114.114 477.854 115.784 476.616 117.015C475.377 118.246 473.697 118.938 471.946 118.938Z" fill="#CCCCCC"/>
<path d="M471.946 143.816H267.562C265.81 143.816 264.13 143.125 262.892 141.893C261.653 140.662 260.958 138.992 260.958 137.251C260.958 135.51 261.653 133.84 262.892 132.609C264.13 131.378 265.81 130.686 267.562 130.686H471.946C473.697 130.686 475.377 131.378 476.616 132.609C477.854 133.84 478.55 135.51 478.55 137.251C478.55 138.992 477.854 140.662 476.616 141.893C475.377 143.125 473.697 143.816 471.946 143.816Z" fill="#CCCCCC"/>
<path d="M325.957 93.7134H208.471C206.721 93.7113 205.043 93.0186 203.807 91.7876C202.57 90.5567 201.875 88.888 201.875 87.1482C201.875 85.4084 202.57 83.7397 203.807 82.5088C205.043 81.2778 206.721 80.5852 208.471 80.583H325.957C326.825 80.5819 327.685 80.751 328.487 81.0804C329.289 81.4099 330.018 81.8933 330.632 82.503C331.247 83.1128 331.734 83.8369 332.066 84.6339C332.399 85.431 332.57 86.2854 332.57 87.1482C332.57 88.0111 332.399 88.8654 332.066 89.6625C331.734 90.4595 331.247 91.1836 330.632 91.7934C330.018 92.4031 329.289 92.8865 328.487 93.216C327.685 93.5455 326.825 93.7145 325.957 93.7134Z" fill="#CCCCCC"/>
<path d="M390.609 94.0589H357.241C355.489 94.0589 353.809 93.3672 352.571 92.136C351.332 90.9048 350.636 89.2349 350.636 87.4937C350.636 85.7525 351.332 84.0826 352.571 82.8514C353.809 81.6202 355.489 80.9285 357.241 80.9285H390.609C392.361 80.9285 394.041 81.6202 395.279 82.8514C396.518 84.0826 397.214 85.7525 397.214 87.4937C397.214 89.2349 396.518 90.9048 395.279 92.136C394.041 93.3672 392.361 94.0589 390.609 94.0589Z" fill="#CCCCCC"/>
<path d="M241.84 143.816H208.471C206.721 143.814 205.043 143.122 203.807 141.891C202.57 140.66 201.875 138.991 201.875 137.251C201.875 135.511 202.57 133.843 203.807 132.612C205.043 131.381 206.721 130.688 208.471 130.686H241.84C242.708 130.685 243.568 130.854 244.37 131.183C245.172 131.513 245.901 131.996 246.515 132.606C247.129 133.216 247.616 133.94 247.949 134.737C248.281 135.534 248.452 136.388 248.452 137.251C248.452 138.114 248.281 138.968 247.949 139.765C247.616 140.562 247.129 141.287 246.515 141.896C245.901 142.506 245.172 142.989 244.37 143.319C243.568 143.648 242.708 143.817 241.84 143.816Z" fill="#CCCCCC"/>
<path d="M325.957 351.905H208.471C206.72 351.905 205.04 351.213 203.801 349.982C202.563 348.75 201.867 347.081 201.867 345.339C201.867 343.598 202.563 341.928 203.801 340.697C205.04 339.466 206.72 338.774 208.471 338.774H325.957C326.825 338.774 327.683 338.944 328.485 339.274C329.286 339.604 330.014 340.087 330.627 340.697C331.24 341.307 331.727 342.03 332.059 342.827C332.391 343.623 332.561 344.477 332.561 345.339C332.561 346.202 332.391 347.055 332.059 347.852C331.727 348.648 331.24 349.372 330.627 349.982C330.014 350.591 329.286 351.075 328.485 351.405C327.683 351.735 326.825 351.905 325.957 351.905Z" fill="#CCCCCC"/>
<path d="M471.946 351.905H354.46C352.708 351.905 351.028 351.213 349.79 349.982C348.551 348.75 347.856 347.081 347.856 345.339C347.856 343.598 348.551 341.928 349.79 340.697C351.028 339.466 352.708 338.774 354.46 338.774H471.946C472.813 338.774 473.672 338.944 474.473 339.274C475.275 339.604 476.003 340.087 476.616 340.697C477.229 341.307 477.716 342.03 478.047 342.827C478.379 343.623 478.55 344.477 478.55 345.339C478.55 346.202 478.379 347.055 478.047 347.852C477.716 348.648 477.229 349.372 476.616 349.982C476.003 350.591 475.275 351.075 474.473 351.405C473.672 351.735 472.813 351.905 471.946 351.905Z" fill="#CCCCCC"/>
<path d="M471.946 376.783H267.562C265.81 376.783 264.13 376.092 262.892 374.86C261.653 373.629 260.958 371.959 260.958 370.218C260.958 368.477 261.653 366.807 262.892 365.576C264.13 364.345 265.81 363.653 267.562 363.653H471.946C472.814 363.652 473.674 363.821 474.476 364.15C475.278 364.48 476.007 364.963 476.621 365.573C477.235 366.183 477.722 366.907 478.055 367.704C478.387 368.501 478.558 369.355 478.558 370.218C478.558 371.081 478.387 371.935 478.055 372.732C477.722 373.529 477.235 374.254 476.621 374.863C476.007 375.473 475.278 375.956 474.476 376.286C473.674 376.615 472.814 376.784 471.946 376.783Z" fill="#CCCCCC"/>
<path d="M325.957 326.68H208.471C206.72 326.68 205.04 325.989 203.801 324.758C202.563 323.526 201.867 321.856 201.867 320.115C201.867 318.374 202.563 316.704 203.801 315.473C205.04 314.242 206.72 313.55 208.471 313.55H325.957C327.709 313.55 329.389 314.242 330.627 315.473C331.866 316.704 332.561 318.374 332.561 320.115C332.561 321.856 331.866 323.526 330.627 324.758C329.389 325.989 327.709 326.68 325.957 326.68Z" fill="#CCCCCC"/>
<path d="M390.609 327.026H357.241C355.489 327.026 353.809 326.334 352.571 325.103C351.332 323.872 350.636 322.202 350.636 320.461C350.636 318.72 351.332 317.05 352.571 315.818C353.809 314.587 355.489 313.896 357.241 313.896H390.609C392.361 313.896 394.041 314.587 395.279 315.818C396.518 317.05 397.214 318.72 397.214 320.461C397.214 322.202 396.518 323.872 395.279 325.103C394.041 326.334 392.361 327.026 390.609 327.026Z" fill="#CCCCCC"/>
<path d="M241.84 376.783H208.471C206.72 376.783 205.04 376.092 203.801 374.86C202.563 373.629 201.867 371.959 201.867 370.218C201.867 368.477 202.563 366.807 203.801 365.576C205.04 364.345 206.72 363.653 208.471 363.653H241.84C242.708 363.652 243.568 363.821 244.37 364.15C245.172 364.48 245.901 364.963 246.515 365.573C247.129 366.183 247.616 366.907 247.949 367.704C248.281 368.501 248.452 369.355 248.452 370.218C248.452 371.081 248.281 371.935 247.949 372.732C247.616 373.529 247.129 374.254 246.515 374.863C245.901 375.473 245.172 375.956 244.37 376.286C243.568 376.615 242.708 376.784 241.84 376.783Z" fill="#CCCCCC"/>
<path d="M295.274 281.422C292.78 281.428 290.386 280.454 288.612 278.712L244.448 235.359C243.581 234.508 242.893 233.494 242.423 232.376C241.953 231.259 241.711 230.06 241.711 228.848C241.711 227.637 241.953 226.438 242.423 225.32C242.893 224.202 243.581 223.189 244.448 222.337L288.433 179.159C290.266 177.369 292.734 176.37 295.303 176.378C297.872 176.386 300.335 177.401 302.156 179.202C303.979 181.018 305.002 183.479 305.002 186.045C305.002 188.61 303.979 191.071 302.156 192.887L269.471 225.379C268.453 226.394 267.881 227.768 267.881 229.202C267.881 230.635 268.453 232.01 269.471 233.024L301.979 265.34C303.306 266.657 304.211 268.336 304.577 270.165C304.944 271.993 304.756 273.888 304.038 275.611C303.32 277.333 302.104 278.805 300.543 279.839C298.983 280.874 297.149 281.425 295.274 281.422Z" fill="#83FFD2"/>
<path d="M365.645 281.422C363.77 281.425 361.936 280.874 360.375 279.839C358.815 278.805 357.599 277.333 356.881 275.611C356.163 273.888 355.975 271.993 356.342 270.165C356.708 268.336 357.613 266.657 358.94 265.34L391.447 233.024C392.466 232.01 393.038 230.635 393.038 229.202C393.038 227.768 392.466 226.394 391.447 225.379L358.763 192.887C357.859 191.988 357.142 190.922 356.653 189.748C356.163 188.574 355.912 187.315 355.912 186.044C355.912 184.774 356.163 183.515 356.653 182.341C357.142 181.167 357.859 180.101 358.763 179.202C360.584 177.401 363.046 176.386 365.615 176.378C368.185 176.37 370.653 177.369 372.486 179.159L416.471 222.337C417.338 223.189 418.026 224.202 418.496 225.32C418.966 226.438 419.208 227.637 419.208 228.848C419.208 230.059 418.966 231.259 418.496 232.376C418.026 233.494 417.338 234.508 416.471 235.359L372.307 278.712C370.533 280.453 368.138 281.427 365.645 281.422Z" fill="#83FFD2"/>
</g>
<defs>
<clipPath id="clip0_149_27">
<rect width="678" height="435" fill="white"/>
</clipPath>
</defs>
</svg>
