<svg width="469" height="153" viewBox="0 0 469 153" fill="none" xmlns="http://www.w3.org/2000/svg">
<path d="M218.065 13.4149H21.3563C19.6705 13.4149 18.0537 12.7082 16.8617 11.4504C15.6697 10.1925 15 8.48635 15 6.70742C15 4.9285 15.6697 3.22244 16.8617 1.96455C18.0537 0.706661 19.6705 5.10783e-06 21.3563 5.10783e-06H218.065C218.9 -0.00108278 219.728 0.171616 220.5 0.50821C221.272 0.844804 221.974 1.33867 222.565 1.96162C223.156 2.58457 223.625 3.32439 223.944 4.13872C224.264 4.95304 224.429 5.82589 224.429 6.70742C224.429 7.58895 224.264 8.46187 223.944 9.27619C223.625 10.0905 223.156 10.8303 222.565 11.4533C221.974 12.0762 221.272 12.5701 220.5 12.9067C219.728 13.2433 218.9 13.416 218.065 13.4149Z" fill="#FAFAFA"/>
<path d="M444.892 13H256.1C254.483 13 252.931 12.3152 251.787 11.0962C250.643 9.87722 250 8.22388 250 6.49997C250 4.77606 250.643 3.12278 251.787 1.90379C252.931 0.684805 254.483 4.94985e-06 256.1 4.94985e-06H444.892C445.694 -0.00104929 446.488 0.166308 447.229 0.492492C447.97 0.818675 448.643 1.29727 449.211 1.90095C449.778 2.50464 450.228 3.22157 450.535 4.01071C450.842 4.79985 451 5.6457 451 6.49997C451 7.35424 450.842 8.20015 450.535 8.98929C450.228 9.77843 449.778 10.4954 449.211 11.099C448.643 11.7027 447.97 12.1813 447.229 12.5075C446.488 12.8337 445.694 13.001 444.892 13Z" fill="#FAFAFA"/>
<path d="M425.721 48H355.276C354.673 48 354.094 47.3152 353.667 46.0962C353.24 44.8772 353 43.2239 353 41.5C353 39.7761 353.24 38.1228 353.667 36.9038C354.094 35.6848 354.673 35 355.276 35H425.721C426.02 34.999 426.316 35.1663 426.593 35.4925C426.869 35.8187 427.121 36.2973 427.332 36.901C427.544 37.5046 427.712 38.2216 427.826 39.0107C427.941 39.7998 428 40.6457 428 41.5C428 42.3542 427.941 43.2002 427.826 43.9893C427.712 44.7784 427.544 45.4954 427.332 46.099C427.121 46.7027 426.869 47.1813 426.593 47.5075C426.316 47.8337 426.02 48.001 425.721 48Z" fill="#FAFAFA"/>
<path d="M276.339 83H8.64987C6.35579 83 4.15561 82.3152 2.53345 81.0962C0.911293 79.8772 0 78.2239 0 76.5C0 74.7761 0.911293 73.1228 2.53345 71.9038C4.15561 70.6848 6.35579 70 8.64987 70H276.339C277.476 69.999 278.602 70.1663 279.653 70.4925C280.704 70.8187 281.658 71.2973 282.463 71.901C283.267 72.5046 283.905 73.2216 284.341 74.0107C284.776 74.7998 285 75.6457 285 76.5C285 77.3542 284.776 78.2002 284.341 78.9893C283.905 79.7784 283.267 80.4954 282.463 81.099C281.658 81.7027 280.704 82.1813 279.653 82.5075C278.602 82.8337 277.476 83.001 276.339 83Z" fill="#FAFAFA"/>
<path d="M393.9 83H298.096C297.275 83 296.487 82.3152 295.907 81.0962C295.326 79.8772 295 78.2239 295 76.5C295 74.7761 295.326 73.1228 295.907 71.9038C296.487 70.6848 297.275 70 298.096 70H393.9C394.307 69.999 394.71 70.1663 395.086 70.4925C395.462 70.8187 395.804 71.2973 396.092 71.901C396.38 72.5046 396.608 73.2216 396.764 74.0107C396.92 74.7998 397 75.6457 397 76.5C397 77.3542 396.92 78.2002 396.764 78.9893C396.608 79.7784 396.38 80.4954 396.092 81.099C395.804 81.7027 395.462 82.1813 395.086 82.5075C394.71 82.8337 394.307 83.001 393.9 83Z" fill="#FAFAFA"/>
<path d="M130.898 118H4.09731C3.01064 118 1.96845 117.315 1.20006 116.096C0.431665 114.877 0 113.224 0 111.5C0 109.776 0.431665 108.123 1.20006 106.904C1.96845 105.685 3.01064 105 4.09731 105H130.898C131.436 104.999 131.969 105.166 132.467 105.492C132.965 105.819 133.417 106.297 133.798 106.901C134.179 107.505 134.481 108.222 134.688 109.011C134.894 109.8 135 110.646 135 111.5C135 112.354 134.894 113.2 134.688 113.989C134.481 114.778 134.179 115.495 133.798 116.099C133.417 116.703 132.965 117.181 132.467 117.508C131.969 117.834 131.436 118.001 130.898 118Z" fill="#FAFAFA"/>
<path d="M303.898 118H177.097C176.011 118 174.968 117.315 174.2 116.096C173.432 114.877 173 113.224 173 111.5C173 109.776 173.432 108.123 174.2 106.904C174.968 105.685 176.011 105 177.097 105H303.898C304.436 104.999 304.969 105.166 305.467 105.492C305.965 105.819 306.417 106.297 306.798 106.901C307.179 107.505 307.481 108.222 307.688 109.011C307.894 109.8 308 110.646 308 111.5C308 112.354 307.894 113.2 307.688 113.989C307.481 114.778 307.179 115.495 306.798 116.099C306.417 116.703 305.965 117.181 305.467 117.508C304.969 117.834 304.436 118.001 303.898 118Z" fill="#FAFAFA"/>
<path d="M436.174 118H348.823C348.074 118 347.356 117.315 346.827 116.096C346.297 114.877 346 113.224 346 111.5C346 109.776 346.297 108.123 346.827 106.904C347.356 105.685 348.074 105 348.823 105H436.174C436.545 104.999 436.912 105.166 437.255 105.492C437.598 105.819 437.91 106.297 438.172 106.901C438.435 107.505 438.643 108.222 438.785 109.011C438.927 109.8 439 110.646 439 111.5C439 112.354 438.927 113.2 438.785 113.989C438.643 114.778 438.435 115.495 438.172 116.099C437.91 116.703 437.598 117.181 437.255 117.508C436.912 117.834 436.545 118.001 436.174 118Z" fill="#FAFAFA"/>
<path d="M90.1739 153H2.82259C2.07399 153 1.35604 152.315 0.826705 151.096C0.297369 149.877 0 148.224 0 146.5C0 144.776 0.297369 143.123 0.826705 141.904C1.35604 140.685 2.07399 140 2.82259 140H90.1739C90.5449 139.999 90.9123 140.166 91.2552 140.492C91.598 140.819 91.9096 141.297 92.172 141.901C92.4345 142.505 92.6427 143.222 92.7848 144.011C92.9269 144.8 93 145.646 93 146.5C93 147.354 92.9269 148.2 92.7848 148.989C92.6427 149.778 92.4345 150.495 92.172 151.099C91.9096 151.703 91.598 152.181 91.2552 152.508C90.9123 152.834 90.5449 153.001 90.1739 153Z" fill="#FAFAFA"/>
<path d="M217.174 153H129.823C129.074 153 128.356 152.315 127.827 151.096C127.297 149.877 127 148.224 127 146.5C127 144.776 127.297 143.123 127.827 141.904C128.356 140.685 129.074 140 129.823 140H217.174C217.545 139.999 217.912 140.166 218.255 140.492C218.598 140.819 218.91 141.297 219.172 141.901C219.435 142.505 219.643 143.222 219.785 144.011C219.927 144.8 220 145.646 220 146.5C220 147.354 219.927 148.2 219.785 148.989C219.643 149.778 219.435 150.495 219.172 151.099C218.91 151.703 218.598 152.181 218.255 152.508C217.912 152.834 217.545 153.001 217.174 153Z" fill="#FAFAFA"/>
<path d="M462.436 153H259.556C257.817 153 256.15 152.315 254.92 151.096C253.691 149.877 253 148.224 253 146.5C253 144.776 253.691 143.123 254.92 141.904C256.15 140.685 257.817 140 259.556 140H462.436C463.298 139.999 464.151 140.166 464.947 140.492C465.744 140.819 466.467 141.297 467.077 141.901C467.687 142.505 468.17 143.222 468.5 144.011C468.83 144.8 469 145.646 469 146.5C469 147.354 468.83 148.2 468.5 148.989C468.17 149.778 467.687 150.495 467.077 151.099C466.467 151.703 465.744 152.181 464.947 152.508C464.151 152.834 463.298 153.001 462.436 153Z" fill="#FAFAFA"/>
<path d="M72.7209 48H2.27628C1.67258 48 1.09358 47.3152 0.666698 46.0962C0.239814 44.8772 0 43.2239 0 41.5C0 39.7761 0.239814 38.1228 0.666698 36.9038C1.09358 35.6848 1.67258 35 2.27628 35H72.7209C73.0201 34.999 73.3164 35.1663 73.5929 35.4925C73.8694 35.8187 74.1206 36.2973 74.3323 36.901C74.544 37.5046 74.7119 38.2216 74.8265 39.0107C74.941 39.7998 75 40.6457 75 41.5C75 42.3542 74.941 43.2002 74.8265 43.9893C74.7119 44.7784 74.544 45.4954 74.3323 46.099C74.1206 46.7027 73.8694 47.1813 73.5929 47.5075C73.3164 47.8337 73.0201 48.001 72.7209 48Z" fill="#FAFAFA"/>
<path d="M326.433 48H92.5573C90.553 48 88.6307 47.3152 87.2134 46.0962C85.7962 44.8772 85 43.2239 85 41.5C85 39.7761 85.7962 38.1228 87.2134 36.9038C88.6307 35.6848 90.553 35 92.5573 35H326.433C327.427 34.999 328.41 35.1663 329.328 35.4925C330.246 35.8187 331.08 36.2973 331.783 36.901C332.486 37.5046 333.043 38.2216 333.424 39.0107C333.804 39.7998 334 40.6457 334 41.5C334 42.3542 333.804 43.2002 333.424 43.9893C333.043 44.7784 332.486 45.4954 331.783 46.099C331.08 46.7027 330.246 47.1813 329.328 47.5075C328.41 47.8337 327.427 48.001 326.433 48Z" fill="#FAFAFA"/>
</svg>
